<svg width="251" height="252" viewBox="0 0 251 252" fill="none" xmlns="http://www.w3.org/2000/svg">
<rect opacity="0.203637" x="27.9999" y="28.6156" width="196" height="196" rx="29" fill="#0177E6"/>
<path fill-rule="evenodd" clip-rule="evenodd" d="M60.0742 2.46936C56.1786 1.42555 52.1749 3.73708 51.1311 7.63266C50.0875 11.5273 52.3988 15.5319 56.2944 16.5757C60.19 17.6196 64.1939 15.3071 65.2375 11.4125C66.2813 7.51687 63.9698 3.51318 60.0742 2.46936Z" fill="#0177E6"/>
<path fill-rule="evenodd" clip-rule="evenodd" d="M43.6738 63.6765C39.7782 62.6327 35.7745 64.9442 34.7307 68.8398C33.6872 72.7344 35.9984 76.7391 39.894 77.7829C43.7896 78.8267 47.7935 76.5142 48.8371 72.6196C49.8809 68.724 47.5694 64.7203 43.6738 63.6765Z" fill="#0177E6"/>
<path fill-rule="evenodd" clip-rule="evenodd" d="M27.2734 124.884C23.3778 123.84 19.3741 126.151 18.3303 130.047C17.2865 133.942 19.598 137.946 23.4936 138.99C27.3892 140.034 31.3929 137.722 32.4367 133.827C33.4805 129.931 31.169 125.927 27.2734 124.884Z" fill="#0177E6"/>
<path fill-rule="evenodd" clip-rule="evenodd" d="M10.873 186.091C6.97744 185.047 2.97349 187.359 1.92993 191.254C0.88611 195.149 3.19764 199.153 7.09322 200.197C10.9888 201.241 14.9925 198.929 16.0363 195.034C17.0799 191.139 14.7686 187.134 10.873 186.091Z" fill="#0177E6"/>
<path fill-rule="evenodd" clip-rule="evenodd" d="M121.282 18.8699C117.386 17.8261 113.382 20.1376 112.339 24.0332C111.295 27.9278 113.606 31.9324 117.502 32.9763C121.397 34.0201 125.401 31.7076 126.445 27.813C127.489 23.9174 125.177 19.9137 121.282 18.8699Z" fill="#0177E6"/>
<path fill-rule="evenodd" clip-rule="evenodd" d="M104.881 80.077C100.986 79.0332 96.982 81.3447 95.9382 85.2403C94.8947 89.1349 97.2059 93.1396 101.102 94.1834C104.997 95.2272 109.001 92.9147 110.045 89.0201C111.088 85.1245 108.777 81.1208 104.881 80.077Z" fill="#0177E6"/>
<path fill-rule="evenodd" clip-rule="evenodd" d="M88.4809 141.284C84.5853 140.24 80.5817 142.552 79.5378 146.447C78.494 150.343 80.8056 154.347 84.7011 155.39C88.5967 156.434 92.6004 154.123 93.6442 150.227C94.688 146.332 92.3765 142.328 88.4809 141.284Z" fill="#0177E6"/>
<path fill-rule="evenodd" clip-rule="evenodd" d="M72.0805 202.491C68.185 201.447 64.181 203.76 63.1374 207.654C62.0936 211.55 64.4052 215.554 68.3007 216.597C72.1963 217.641 76.2 215.33 77.2438 211.434C78.2874 207.54 75.9761 203.535 72.0805 202.491Z" fill="#0177E6"/>
<path fill-rule="evenodd" clip-rule="evenodd" d="M182.489 35.2703C178.593 34.2265 174.589 36.538 173.546 40.4336C172.502 44.3282 174.813 48.3328 178.709 49.3766C182.605 50.4205 186.609 48.108 187.652 44.2134C188.696 40.3178 186.384 36.3141 182.489 35.2703Z" fill="#0177E6"/>
<path fill-rule="evenodd" clip-rule="evenodd" d="M166.088 96.4774C162.193 95.4336 158.189 97.7451 157.145 101.641C156.102 105.535 158.413 109.54 162.309 110.584C166.204 111.628 170.208 109.315 171.252 105.421C172.295 101.525 169.984 97.5212 166.088 96.4774Z" fill="#0177E6"/>
<path fill-rule="evenodd" clip-rule="evenodd" d="M149.688 157.684C145.792 156.641 141.789 158.952 140.745 162.848C139.701 166.743 142.013 170.747 145.908 171.791C149.804 172.835 153.807 170.523 154.851 166.628C155.895 162.732 153.584 158.728 149.688 157.684Z" fill="#0177E6"/>
<path fill-rule="evenodd" clip-rule="evenodd" d="M133.288 218.891C129.392 217.848 125.388 220.16 124.345 224.055C123.301 227.95 125.612 231.954 129.508 232.998C133.403 234.042 137.407 231.73 138.451 227.835C139.494 223.94 137.183 219.935 133.288 218.891Z" fill="#0177E6"/>
<path fill-rule="evenodd" clip-rule="evenodd" d="M243.696 51.6707C239.8 50.6268 235.797 52.9384 234.753 56.834C233.709 60.7286 236.02 64.7332 239.916 65.777C243.812 66.8209 247.816 64.5084 248.859 60.6137C249.903 56.7182 247.591 52.7145 243.696 51.6707Z" fill="#0177E6"/>
<path fill-rule="evenodd" clip-rule="evenodd" d="M227.295 112.878C223.4 111.834 219.396 114.146 218.352 118.041C217.309 121.936 219.62 125.94 223.516 126.984C227.411 128.028 231.415 125.716 232.459 121.821C233.503 117.925 231.191 113.922 227.295 112.878Z" fill="#0177E6"/>
<path fill-rule="evenodd" clip-rule="evenodd" d="M210.895 174.085C206.999 173.041 202.996 175.353 201.952 179.248C200.908 183.144 203.22 187.147 207.115 188.191C211.011 189.235 215.015 186.924 216.058 183.028C217.102 179.132 214.791 175.129 210.895 174.085Z" fill="#0177E6"/>
<path fill-rule="evenodd" clip-rule="evenodd" d="M194.495 235.292C190.599 234.248 186.595 236.561 185.552 240.455C184.508 244.351 186.819 248.354 190.715 249.398C194.61 250.442 198.614 248.131 199.658 244.235C200.702 240.34 198.39 236.336 194.495 235.292Z" fill="#0177E6"/>
</svg>
