<svg width="15" height="17" viewBox="0 0 15 17" fill="none" xmlns="http://www.w3.org/2000/svg">
<path fill-rule="evenodd" clip-rule="evenodd" d="M7.223 6.90122L11.05 2.40622C11.4301 1.95983 12.0473 1.95983 12.4274 2.40622C12.8074 2.85262 12.8074 3.57762 12.4274 4.02401L8.60037 8.51901L12.4274 13.014C12.7995 13.45 12.7995 14.1595 12.4274 14.5966C12.0553 15.0337 11.4512 15.0337 11.08 14.5966L7.25299 10.1016L3.42599 14.5966C3.04593 15.043 2.42868 15.043 2.04862 14.5966C1.66857 14.1502 1.66857 13.4252 2.04862 12.9788L5.87562 8.48379L2.04862 3.98879C1.6765 3.55276 1.6765 2.84329 2.04862 2.40622C2.42074 1.96915 3.02477 1.96915 3.39601 2.40622L7.223 6.90122Z" fill="#939393"/>
</svg>
